<svg width="501" height="501" viewBox="0 0 501 501" fill="none" xmlns="http://www.w3.org/2000/svg">
<path d="M250.462 0.565186C112.248 0.565186 0.565186 112.453 0.565186 250.462C0.565186 356.386 66.3817 446.884 159.348 483.288C157.085 463.543 155.234 433.103 160.17 411.507C164.695 391.968 189.376 287.278 189.376 287.278C189.376 287.278 181.972 272.264 181.972 250.257C181.972 215.497 202.128 189.582 227.221 189.582C248.611 189.582 258.895 205.625 258.895 224.753C258.895 246.143 245.32 278.229 238.122 308.052C232.157 332.939 250.668 353.301 275.144 353.301C319.57 353.301 353.712 306.406 353.712 238.944C353.712 179.093 310.726 137.34 249.228 137.34C178.064 137.34 136.312 190.61 136.312 245.732C136.312 267.122 144.539 290.158 154.823 302.704C156.879 305.172 157.085 307.435 156.468 309.903C154.617 317.719 150.298 334.79 149.475 338.286C148.447 342.811 145.773 343.84 141.042 341.577C110.191 326.768 90.8572 281.108 90.8572 244.498C90.8572 165.724 148.035 93.3254 256.016 93.3254C342.605 93.3254 410.067 155.028 410.067 237.71C410.067 323.889 355.769 393.202 280.491 393.202C255.193 393.202 231.334 380.039 223.313 364.407C223.313 364.407 210.767 412.124 207.682 423.848C202.128 445.65 186.908 472.799 176.624 489.459C200.072 496.657 224.753 500.565 250.668 500.565C388.677 500.565 500.565 388.677 500.565 250.668C500.359 112.453 388.471 0.565186 250.462 0.565186Z" fill="#662400"/>
</svg>
